<svg width="15" height="13" viewBox="0 0 15 13" fill="none" xmlns="http://www.w3.org/2000/svg">
<path d="M1.11249 5.95766H12.3341L8.03715 1.86491C7.81215 1.65059 7.80343 1.29453 8.01774 1.06953C8.23177 0.844813 8.58783 0.835813 8.81311 1.05013L13.7204 5.7245C13.9327 5.93712 14.05 6.2195 14.05 6.52016C14.05 6.82053 13.9327 7.10319 13.7105 7.32509L8.81283 11.9899C8.70399 12.0936 8.56449 12.1451 8.42499 12.1451C8.27649 12.1451 8.12799 12.0866 8.01746 11.9705C7.80315 11.7455 7.81187 11.3897 8.03687 11.1754L12.3518 7.08266H1.11249C0.801988 7.08266 0.549988 6.83066 0.549988 6.52016C0.549988 6.20966 0.801988 5.95766 1.11249 5.95766Z" fill="#1A1A1A"/>
</svg>
